<?xml version="1.0" standalone="no"?><!DOCTYPE svg PUBLIC "-//W3C//DTD SVG 1.1//EN" "http://www.w3.org/Graphics/SVG/1.1/DTD/svg11.dtd"><svg t="1735629740740" class="icon" viewBox="0 0 1024 1024" version="1.1" xmlns="http://www.w3.org/2000/svg" p-id="1575" xmlns:xlink="http://www.w3.org/1999/xlink" width="200" height="200"><path d="M871.1168 137.8816H297.3184v95.3344a30.72 30.72 0 1 1-61.44 0V137.8816H145.6128a92.16 92.16 0 0 0-92.16 92.16v149.4016a22.6816 22.6816 0 0 0 18.688 22.016 109.7216 109.7216 0 0 1 0 215.3984 22.6304 22.6304 0 0 0-18.688 22.016V788.48a92.16 92.16 0 0 0 92.16 92.16H236.032a29.0816 29.0816 0 0 1 0-3.0208v-97.1264a30.72 30.72 0 1 1 61.44 0v96.8704a29.0816 29.0816 0 0 1 0 3.0208h573.952a92.16 92.16 0 0 0 92.16-92.16v-558.08a92.16 92.16 0 0 0-92.4672-92.2624zM297.3184 578.56a30.72 30.72 0 1 1-61.44 0V435.2a30.72 30.72 0 1 1 61.44 0z m525.9776-19.8144a30.72 30.72 0 0 1 0 61.44h-156.2112v74.496a30.72 30.72 0 1 1-61.44 0v-74.752H449.4336a30.72 30.72 0 0 1 0-61.44h156.2112V494.4384H449.4336a30.72 30.72 0 0 1 0-61.44h126.5664L482.816 348.928a30.72 30.72 0 0 1 40.96-45.6192l112.64 101.4272 115.712-103.7824a30.72 30.72 0 1 1 40.96 45.7728l-96.1536 86.272h126.3616a30.72 30.72 0 0 1 0 61.44h-156.2112v64.0512z" fill="#FF623E" p-id="1576"></path></svg>